<?xml version="1.0" encoding="utf-8"?>
<!-- Generator: Adobe Illustrator 19.0.0, SVG Export Plug-In . SVG Version: 6.00 Build 0)  -->
<svg version="1.1" id="Layer_1" xmlns="http://www.w3.org/2000/svg" xmlns:xlink="http://www.w3.org/1999/xlink" x="0px" y="0px"
	 viewBox="0 0 754 281.5" style="enable-background:new 0 0 754 281.5;" xml:space="preserve">
<g id="XMLID_1_">
	<path id="XMLID_24_" style="fill:#e6ec41;" d="M103.9,274.5H0v-48.1h16.1v-87.7H0.4V91h69l11,23.5c2.4-4.4,5-8.6,7.7-12.5
		c2.7-3.9,6.1-7.4,10.3-10.5c4.2-3.1,9.3-5.4,15.4-7.2c6.1-1.7,13.9-2.6,23.5-2.6v66.1c-16.6,0-29.4,2.8-38.4,8.3
		c-8.9,5.5-13.4,16.3-13.4,32.5v37.8h18.3V274.5z"/>
	<path id="XMLID_2_" style="fill:#e6ec41;" d="M552.5,106.4c3.7-2.2,8.3-4.8,13.9-7.7c5.6-2.9,11.9-5.8,18.9-8.6
		c7-2.8,14.4-5.1,22.4-7c8-1.8,16.2-2.8,24.8-2.8c11,0,22.4,1.2,34.1,3.5c11.7,2.3,22.4,6.4,32.1,12.1c9.7,5.8,17.6,13.5,23.9,23.3
		c6.2,9.8,9.4,22,9.4,36.7v71.6h22v47h-78.5l-8.8-16.5c-3.4,4.7-7.3,8.5-11.6,11.6c-4.3,3.1-8.7,5.4-13.2,7.2
		c-4.5,1.7-9,2.9-13.4,3.7c-4.4,0.7-8.2,1.1-11.4,1.1c-8.8,0-17.5-1.2-26.1-3.7c-8.6-2.4-16.3-6.1-23.1-11
		c-6.9-4.9-12.4-11.2-16.7-18.9c-4.3-7.7-6.4-16.9-6.4-27.7c0-10.3,2-19.6,6.1-27.9c4-8.3,9.5-15.4,16.5-21.3
		c7-5.9,15.1-10.4,24.4-13.6c9.3-3.2,19.1-4.8,29.4-4.8c5.4,0,10.2,0.6,14.5,1.7c4.3,1.1,7.9,2.4,11,3.9c3.1,1.5,5.5,2.9,7.3,4.4
		c1.8,1.5,3,2.4,3.5,2.9v-12.8c0-8.3-3.3-13.8-9.9-16.5c-6.6-2.7-14.9-4-25-4c-11,0-21.1,1.8-30.3,5.5c-9.2,3.7-17.3,7.5-24.4,11.4
		L552.5,106.4z M634,233.8c5.6,0,10.5-1.3,14.7-4c4.2-2.7,7.1-5.4,8.8-8.1v-13.9c-0.2-0.5-0.8-1.3-1.6-2.4c-0.9-1.1-2.1-2.3-3.9-3.5
		c-1.7-1.2-3.9-2.3-6.4-3.3c-2.6-1-5.8-1.5-9.7-1.5c-7.3,0-12.7,1.8-16.1,5.5c-3.4,3.7-5.1,8.3-5.1,13.9c0,5.1,1.8,9.3,5.5,12.5
		C623.7,232.2,628.4,233.8,634,233.8z"/>
	<path id="XMLID_15_" style="fill:#e6ec41;" d="M275,225.5h16v-11c-5,3.7-9.4,6.7-14,8.8c-4.9,2.3-9.7,4.1-14.1,5.3
		c-4.4,1.2-8.6,2-12.4,2.2c-3.8,0.2-7.3,0.4-10.5,0.4c-7.8,0-14.1-1.1-18.7-3.3c-4.7-2.2-8.3-4.9-11-8.1c-2.7-3.2-4.6-6.3-5.7-9.7
		c-1.1-3.4-1.9-6.6-2.4-8.6H291v-66h-16V94.7c-2-0.8-3.6-1.5-5.4-2.2c-11.6-4.4-25.1-6.6-40.2-6.6c-13.9,0-26.9,2.1-38.9,6.4
		c-12,4.3-22.4,10.6-31.2,18.9c-8.8,8.3-15.8,18.4-20.9,30.3c-5.1,11.9-7.7,25.3-7.7,40.2c0,17.6,2.9,32.7,8.8,45.3
		c5.9,12.6,13.4,22.9,22.6,30.8c9.2,8,19.5,13.8,31,17.6c11.5,3.8,23,5.7,34.5,5.7c18.3,0,34.8-1.6,49.5-6.6h-2V225.5z M204.9,156.7
		c0.9-3.4,2.3-6.8,4.4-9.9c2.1-3.1,4.9-5.8,8.4-8c3.5-2.2,8.1-3.3,13.8-3.3c5.9,0,10.6,0.8,14.1,2.5c3.5,1.7,6.2,4,8.1,6.8
		c1.8,2.8,3.1,6.4,3.9,9.9c0.7,3.5,1.1,6.8,1.1,10.8h-55.4C203.5,162.5,204.1,160.1,204.9,156.7z"/>
	<path id="XMLID_17_" style="fill:#e6ec41;" d="M530,226.5v-61.4c0-9.5-1-19.1-2.6-28.8c-1.6-9.7-4.9-18.4-9.7-26.1
		c-4.8-7.7-11.6-13.9-20.2-18.7c-8.7-4.8-20.2-7.2-34.3-7.2c-11.7,0-21.9,2.8-30.3,8.3c-8.4,5.5-15.9,12.8-22.2,21.3l-8.5-22.5H360
		v134h18v49h59v-48h-26v-52.2c0-3.9,0.1-7.9,0.7-11.9c0.6-4,1.7-7.7,3.4-11c1.7-3.3,4-6,7.1-8.1c3.1-2.1,6.9-3.1,11.5-3.1
		c5.4,0,9.5,1.2,12.3,3.7c2.8,2.4,4.8,5.4,6,8.8c1.2,3.4,2.2,7.1,2.4,11c0.1,3.9,0.5,7.5,0.5,10.6v100.2h92v-48H530z"/>
	<path id="XMLID_19_" style="fill:#e6ec41;" d="M285.2,37.4c0-4.2,0.8-8.4,2.6-12.8c1.7-4.4,4.2-8.4,7.5-12.1
		c3.3-3.7,7.5-6.7,12.5-9c5-2.3,10.7-3.5,17.1-3.5c6.4,0,12,1.2,17.1,3.5c5,2.3,9.2,5.3,12.7,9c3.4,3.7,6.1,7.7,7.9,12.1
		c1.8,4.4,2.8,8.7,2.8,12.8c0,10.3-3.4,19-10.3,26.2c-6.9,7.2-16.9,10.8-30.1,10.8c-5.9,0-11.2-1.1-16-3.3
		c-4.8-2.2-8.9-5.1-12.5-8.6c-3.6-3.5-6.3-7.5-8.3-11.9C286.1,46.2,285.2,41.8,285.2,37.4z"/>
</g>
</svg>
